<mxfile host="www.draw.io" modified="2019-12-29T12:54:31.747Z" agent="Mozilla/5.0 (Windows NT 10.0; Win64; x64) AppleWebKit/537.36 (KHTML, like Gecko) Chrome/78.0.3904.108 Safari/537.36" etag="LitmMVH4P-YeNQreneG6" version="12.4.7" type="github">
  <diagram id="ZxHE4X7sbkRIkBCOowjO" name="第 1 页">
    <mxGraphModel dx="1595" dy="423" grid="1" gridSize="10" guides="1" tooltips="1" connect="1" arrows="1" fold="1" page="1" pageScale="1" pageWidth="827" pageHeight="1169" math="0" shadow="0">
      <root>
        <mxCell id="0"/>
        <mxCell id="1" parent="0"/>
        <mxCell id="ajb8naOw8Qdg2USgOLae-13" style="edgeStyle=orthogonalEdgeStyle;rounded=0;orthogonalLoop=1;jettySize=auto;html=1;" edge="1" parent="1" source="ajb8naOw8Qdg2USgOLae-1" target="ajb8naOw8Qdg2USgOLae-12">
          <mxGeometry relative="1" as="geometry"/>
        </mxCell>
        <mxCell id="ajb8naOw8Qdg2USgOLae-1" value="内存" style="rounded=0;whiteSpace=wrap;html=1;" vertex="1" parent="1">
          <mxGeometry x="-230" y="20" width="700" height="190" as="geometry"/>
        </mxCell>
        <mxCell id="ajb8naOw8Qdg2USgOLae-9" style="edgeStyle=orthogonalEdgeStyle;rounded=0;orthogonalLoop=1;jettySize=auto;html=1;entryX=0;entryY=0.5;entryDx=0;entryDy=0;" edge="1" parent="1" source="ajb8naOw8Qdg2USgOLae-3" target="ajb8naOw8Qdg2USgOLae-4">
          <mxGeometry relative="1" as="geometry"/>
        </mxCell>
        <mxCell id="ajb8naOw8Qdg2USgOLae-3" value="buffer" style="rounded=1;whiteSpace=wrap;html=1;" vertex="1" parent="1">
          <mxGeometry x="-200" y="120" width="120" height="60" as="geometry"/>
        </mxCell>
        <mxCell id="ajb8naOw8Qdg2USgOLae-11" style="edgeStyle=orthogonalEdgeStyle;rounded=0;orthogonalLoop=1;jettySize=auto;html=1;" edge="1" parent="1" source="ajb8naOw8Qdg2USgOLae-4" target="ajb8naOw8Qdg2USgOLae-3">
          <mxGeometry relative="1" as="geometry"/>
        </mxCell>
        <mxCell id="ajb8naOw8Qdg2USgOLae-17" value="buffer和channel之间进行传输的时候&lt;br&gt;线程可以做其他事情" style="text;html=1;align=center;verticalAlign=middle;resizable=0;points=[];labelBackgroundColor=#ffffff;" vertex="1" connectable="0" parent="ajb8naOw8Qdg2USgOLae-11">
          <mxGeometry x="0.1429" y="-1" relative="1" as="geometry">
            <mxPoint as="offset"/>
          </mxGeometry>
        </mxCell>
        <mxCell id="ajb8naOw8Qdg2USgOLae-4" value="channel" style="rounded=1;whiteSpace=wrap;html=1;" vertex="1" parent="1">
          <mxGeometry x="340" y="130" width="120" height="60" as="geometry"/>
        </mxCell>
        <mxCell id="ajb8naOw8Qdg2USgOLae-14" style="edgeStyle=orthogonalEdgeStyle;rounded=0;orthogonalLoop=1;jettySize=auto;html=1;" edge="1" parent="1" source="ajb8naOw8Qdg2USgOLae-15" target="ajb8naOw8Qdg2USgOLae-1">
          <mxGeometry relative="1" as="geometry">
            <Array as="points">
              <mxPoint x="460" y="125"/>
              <mxPoint x="460" y="125"/>
            </Array>
          </mxGeometry>
        </mxCell>
        <mxCell id="ajb8naOw8Qdg2USgOLae-12" value="网络或者磁盘" style="ellipse;whiteSpace=wrap;html=1;aspect=fixed;" vertex="1" parent="1">
          <mxGeometry x="700" y="5" width="220" height="220" as="geometry"/>
        </mxCell>
        <mxCell id="ajb8naOw8Qdg2USgOLae-15" value="Selector（可以服务多个channel）" style="rounded=0;whiteSpace=wrap;html=1;" vertex="1" parent="1">
          <mxGeometry x="450" y="60" width="70" height="110" as="geometry"/>
        </mxCell>
        <mxCell id="ajb8naOw8Qdg2USgOLae-16" style="edgeStyle=orthogonalEdgeStyle;rounded=0;orthogonalLoop=1;jettySize=auto;html=1;" edge="1" parent="1" source="ajb8naOw8Qdg2USgOLae-12" target="ajb8naOw8Qdg2USgOLae-15">
          <mxGeometry relative="1" as="geometry">
            <mxPoint x="700" y="115" as="sourcePoint"/>
            <mxPoint x="470" y="115" as="targetPoint"/>
          </mxGeometry>
        </mxCell>
      </root>
    </mxGraphModel>
  </diagram>
</mxfile>
